<?xml version="1.0" standalone="no"?><!DOCTYPE svg PUBLIC "-//W3C//DTD SVG 1.1//EN" "http://www.w3.org/Graphics/SVG/1.1/DTD/svg11.dtd"><svg t="1705898648093" class="icon" viewBox="0 0 1024 1024" version="1.1" xmlns="http://www.w3.org/2000/svg" p-id="5409" xmlns:xlink="http://www.w3.org/1999/xlink" width="48" height="48"><path d="M881.777778 56.888889a85.333333 85.333333 0 0 1 85.333333 85.333333v739.555556a85.333333 85.333333 0 0 1-85.333333 85.333333H142.222222a85.333333 85.333333 0 0 1-85.333333-85.333333V142.222222a85.333333 85.333333 0 0 1 85.333333-85.333333h739.555556z m0 85.333333H142.222222v597.333334l157.155556-179.626667L426.666667 682.666667l199.111111-227.555556 256 284.444445V142.222222zM327.111111 227.555556a85.333333 85.333333 0 1 1 0 170.666666 85.333333 85.333333 0 0 1 0-170.666666z" fill="#bfbfbf" p-id="5410"></path></svg>